<svg width="235" height="142" viewBox="0 0 235 142" fill="none" xmlns="http://www.w3.org/2000/svg">
<path d="M57.8 9.58443e-05C76.4667 9.58443e-05 90.8 6.13343 100.8 18.4001C110.8 30.5334 115.8 47.9334 115.8 70.6001C115.8 93.2668 110.8 110.733 100.8 123C90.8 135.267 76.4667 141.4 57.8 141.4C39.2667 141.4 25 135.267 15 123C5.00003 110.733 2.47359e-05 93.2668 2.47359e-05 70.6001C2.47359e-05 47.9334 5.00003 30.5334 15 18.4001C25 6.13343 39.2667 9.58443e-05 57.8 9.58443e-05ZM57.8 12.2001C44.2 12.2001 33.8667 17.1334 26.8 27.0001C19.8667 36.7334 16.4 51.2668 16.4 70.6001C16.4 89.9334 19.8667 104.533 26.8 114.4C33.8667 124.133 44.2 129 57.8 129C71.4 129 81.7334 124.133 88.8 114.4C95.8667 104.533 99.4 89.9334 99.4 70.6001C99.4 51.2668 95.8667 36.7334 88.8 27.0001C81.7334 17.1334 71.4 12.2001 57.8 12.2001ZM189.578 71.0001C195.711 64.7334 200.578 58.5334 204.178 52.4001C207.778 46.1334 209.578 40.6668 209.578 36.0001C209.578 28.9334 206.978 23.4001 201.778 19.4001C196.578 15.4001 189.378 13.4001 180.178 13.4001C173.511 13.4001 166.645 14.9334 159.578 18.0001C152.511 21.0668 146.111 25.2668 140.378 30.6001L133.378 19.0001C140.445 13.1334 148.178 8.53343 156.578 5.20009C164.978 1.73343 173.445 9.58443e-05 181.978 9.58443e-05C190.911 9.58443e-05 198.645 1.40009 205.178 4.20009C211.845 6.86675 216.978 10.8001 220.578 16.0001C224.311 21.0668 226.178 27.0668 226.178 34.0001C226.178 40.5334 223.778 47.7334 218.978 55.6001C214.311 63.4668 208.111 71.4001 200.378 79.4001L150.378 131.8L148.178 126.8H234.778V140.6H134.578L134.778 128.2L189.578 71.0001Z" fill="black"/>
</svg>
