<svg width="233" height="142" viewBox="0 0 233 142" fill="none" xmlns="http://www.w3.org/2000/svg">
<path d="M57.8 9.58443e-05C76.4667 9.58443e-05 90.8 6.13343 100.8 18.4001C110.8 30.5334 115.8 47.9334 115.8 70.6001C115.8 93.2668 110.8 110.733 100.8 123C90.8 135.267 76.4667 141.4 57.8 141.4C39.2667 141.4 25 135.267 15 123C5.00003 110.733 2.47359e-05 93.2668 2.47359e-05 70.6001C2.47359e-05 47.9334 5.00003 30.5334 15 18.4001C25 6.13343 39.2667 9.58443e-05 57.8 9.58443e-05ZM57.8 12.2001C44.2 12.2001 33.8667 17.1334 26.8 27.0001C19.8667 36.7334 16.4 51.2668 16.4 70.6001C16.4 89.9334 19.8667 104.533 26.8 114.4C33.8667 124.133 44.2 129 57.8 129C71.4 129 81.7334 124.133 88.8 114.4C95.8667 104.533 99.4 89.9334 99.4 70.6001C99.4 51.2668 95.8667 36.7334 88.8 27.0001C81.7334 17.1334 71.4 12.2001 57.8 12.2001ZM185.378 60.4001C199.645 61.0668 211.111 64.6668 219.778 71.2001C228.445 77.6001 232.778 86.4668 232.778 97.8001C232.778 106.333 230.578 113.933 226.178 120.6C221.778 127.133 215.578 132.267 207.578 136C199.578 139.6 189.978 141.4 178.778 141.4C169.978 141.4 161.245 140.133 152.578 137.6C144.045 135.067 136.711 131.733 130.578 127.6L137.578 115.4C143.045 119.4 149.311 122.6 156.378 125C163.445 127.267 170.645 128.4 177.978 128.4C186.245 128.4 193.245 127.133 198.978 124.6C204.845 122.067 209.311 118.533 212.378 114C215.578 109.467 217.178 104.267 217.178 98.4001C217.178 89.3334 213.645 82.4668 206.578 77.8001C199.645 73.1334 189.911 70.8001 177.378 70.8001H158.978V60.8001L210.378 9.00009L212.578 14.4001H137.178V0.600088H225.578V10.6001L171.778 65.0001L169.578 59.6001L185.378 60.4001Z" fill="black"/>
</svg>
