<svg width="239" height="142" viewBox="0 0 239 142" fill="none" xmlns="http://www.w3.org/2000/svg">
<path d="M57.8 9.58443e-05C76.4667 9.58443e-05 90.8 6.13343 100.8 18.4001C110.8 30.5334 115.8 47.9334 115.8 70.6001C115.8 93.2668 110.8 110.733 100.8 123C90.8 135.267 76.4667 141.4 57.8 141.4C39.2667 141.4 25 135.267 15 123C5.00003 110.733 2.47359e-05 93.2668 2.47359e-05 70.6001C2.47359e-05 47.9334 5.00003 30.5334 15 18.4001C25 6.13343 39.2667 9.58443e-05 57.8 9.58443e-05ZM57.8 12.2001C44.2 12.2001 33.8667 17.1334 26.8 27.0001C19.8667 36.7334 16.4 51.2668 16.4 70.6001C16.4 89.9334 19.8667 104.533 26.8 114.4C33.8667 124.133 44.2 129 57.8 129C71.4 129 81.7334 124.133 88.8 114.4C95.8667 104.533 99.4 89.9334 99.4 70.6001C99.4 51.2668 95.8667 36.7334 88.8 27.0001C81.7334 17.1334 71.4 12.2001 57.8 12.2001ZM130.978 103.2V91.0001L182.778 0.600088H198.578L144.578 95.2001L140.978 89.4001H238.378V103.2H130.978ZM201.178 51.2001H216.178V140.6H201.178V51.2001Z" fill="black"/>
</svg>
