<svg width="242" height="142" viewBox="0 0 242 142" fill="none" xmlns="http://www.w3.org/2000/svg">
<path d="M57.8 9.58443e-05C76.4667 9.58443e-05 90.8 6.13343 100.8 18.4001C110.8 30.5334 115.8 47.9334 115.8 70.6001C115.8 93.2668 110.8 110.733 100.8 123C90.8 135.267 76.4667 141.4 57.8 141.4C39.2667 141.4 25 135.267 15 123C5.00003 110.733 2.47359e-05 93.2668 2.47359e-05 70.6001C2.47359e-05 47.9334 5.00003 30.5334 15 18.4001C25 6.13343 39.2667 9.58443e-05 57.8 9.58443e-05ZM57.8 12.2001C44.2 12.2001 33.8667 17.1334 26.8 27.0001C19.8667 36.7334 16.4 51.2668 16.4 70.6001C16.4 89.9334 19.8667 104.533 26.8 114.4C33.8667 124.133 44.2 129 57.8 129C71.4 129 81.7334 124.133 88.8 114.4C95.8667 104.533 99.4 89.9334 99.4 70.6001C99.4 51.2668 95.8667 36.7334 88.8 27.0001C81.7334 17.1334 71.4 12.2001 57.8 12.2001ZM165.178 63.4001L161.578 56.6001C163.978 56.0668 166.911 55.6001 170.378 55.2001C173.845 54.8001 177.378 54.5334 180.978 54.4001C184.711 54.1334 187.978 54.0001 190.778 54.0001C201.178 54.0001 210.111 55.8001 217.578 59.4001C225.178 62.8668 231.045 67.7334 235.178 74.0001C239.445 80.1334 241.578 87.2001 241.578 95.2001C241.578 104.533 239.445 112.667 235.178 119.6C230.911 126.533 224.845 131.933 216.978 135.8C209.245 139.533 200.111 141.4 189.578 141.4C181.445 141.4 172.845 140.067 163.778 137.4C154.845 134.6 146.845 130.933 139.778 126.4L146.378 114C152.511 118.267 159.245 121.667 166.578 124.2C174.045 126.6 181.245 127.8 188.178 127.8C199.245 127.8 208.045 124.933 214.578 119.2C221.245 113.467 224.578 105.8 224.578 96.2001C224.578 87.5334 221.311 80.6668 214.778 75.6001C208.378 70.4001 199.178 67.8001 187.178 67.8001C185.178 67.8001 182.645 67.9334 179.578 68.2001C176.511 68.3334 173.178 68.6001 169.578 69.0001C166.111 69.2668 162.645 69.6668 159.178 70.2001C155.845 70.7334 152.845 71.2668 150.178 71.8001V0.600088H235.778V14.4001H157.978L165.178 7.4001V63.4001Z" fill="black"/>
</svg>
