<svg width="244" height="142" viewBox="0 0 244 142" fill="none" xmlns="http://www.w3.org/2000/svg">
<path d="M57.8 9.58443e-05C76.4667 9.58443e-05 90.8 6.13343 100.8 18.4001C110.8 30.5334 115.8 47.9334 115.8 70.6001C115.8 93.2668 110.8 110.733 100.8 123C90.8 135.267 76.4667 141.4 57.8 141.4C39.2667 141.4 25 135.267 15 123C5.00003 110.733 2.47359e-05 93.2668 2.47359e-05 70.6001C2.47359e-05 47.9334 5.00003 30.5334 15 18.4001C25 6.13343 39.2667 9.58443e-05 57.8 9.58443e-05ZM57.8 12.2001C44.2 12.2001 33.8667 17.1334 26.8 27.0001C19.8667 36.7334 16.4 51.2668 16.4 70.6001C16.4 89.9334 19.8667 104.533 26.8 114.4C33.8667 124.133 44.2 129 57.8 129C71.4 129 81.7334 124.133 88.8 114.4C95.8667 104.533 99.4 89.9334 99.4 70.6001C99.4 51.2668 95.8667 36.7334 88.8 27.0001C81.7334 17.1334 71.4 12.2001 57.8 12.2001ZM232.178 21.4001C227.511 18.7334 222.245 16.6668 216.378 15.2001C210.645 13.6001 205.045 12.8001 199.578 12.8001C189.311 12.8001 180.845 15.5334 174.178 21.0001C167.511 26.3334 162.645 33.9334 159.578 43.8001C156.511 53.5334 155.378 65.1334 156.178 78.6001C159.378 69.8001 164.578 63.0668 171.778 58.4001C179.111 53.6001 187.978 51.2001 198.378 51.2001C207.711 51.2001 215.711 53.0001 222.378 56.6001C229.178 60.2001 234.378 65.2668 237.978 71.8001C241.711 78.3334 243.578 86.1334 243.578 95.2001C243.578 104.8 241.578 113.067 237.578 120C233.711 126.8 228.178 132.067 220.978 135.8C213.778 139.533 205.311 141.4 195.578 141.4C184.111 141.4 174.245 138.8 165.978 133.6C157.711 128.267 151.311 120.6 146.778 110.6C142.378 100.467 140.178 88.2001 140.178 73.8001C140.178 59.0001 142.511 46.0668 147.178 35.0001C151.978 23.9334 158.711 15.3334 167.378 9.2001C176.178 3.06676 186.511 9.58443e-05 198.378 9.58443e-05C204.911 9.58443e-05 211.778 0.933429 218.978 2.8001C226.178 4.53342 232.711 6.86675 238.578 9.80009L232.178 21.4001ZM195.778 63.6001C188.311 63.6001 181.845 65.1334 176.378 68.2001C170.911 71.2668 166.778 75.2668 163.978 80.2001C161.178 85.1334 159.778 90.4668 159.778 96.2001C159.778 99.6668 160.445 103.267 161.778 107C163.111 110.733 165.178 114.2 167.978 117.4C170.778 120.6 174.378 123.2 178.778 125.2C183.178 127.067 188.445 128 194.578 128C201.245 128 207.111 126.733 212.178 124.2C217.378 121.533 221.378 117.733 224.178 112.8C227.111 107.733 228.578 101.8 228.578 95.0001C228.578 85.2668 225.578 77.6001 219.578 72.0001C213.711 66.4001 205.778 63.6001 195.778 63.6001Z" fill="black"/>
</svg>
