<svg width="243" height="142" viewBox="0 0 243 142" fill="none" xmlns="http://www.w3.org/2000/svg">
<path d="M57.8 9.58443e-05C76.4667 9.58443e-05 90.8 6.13343 100.8 18.4001C110.8 30.5334 115.8 47.9334 115.8 70.6001C115.8 93.2668 110.8 110.733 100.8 123C90.8 135.267 76.4667 141.4 57.8 141.4C39.2667 141.4 25 135.267 15 123C5.00003 110.733 2.47359e-05 93.2668 2.47359e-05 70.6001C2.47359e-05 47.9334 5.00003 30.5334 15 18.4001C25 6.13343 39.2667 9.58443e-05 57.8 9.58443e-05ZM57.8 12.2001C44.2 12.2001 33.8667 17.1334 26.8 27.0001C19.8667 36.7334 16.4 51.2668 16.4 70.6001C16.4 89.9334 19.8667 104.533 26.8 114.4C33.8667 124.133 44.2 129 57.8 129C71.4 129 81.7334 124.133 88.8 114.4C95.8667 104.533 99.4 89.9334 99.4 70.6001C99.4 51.2668 95.8667 36.7334 88.8 27.0001C81.7334 17.1334 71.4 12.2001 57.8 12.2001ZM190.978 9.58443e-05C200.311 9.58443e-05 208.311 1.40009 214.978 4.20009C221.778 7.00009 226.978 11.0001 230.578 16.2001C234.178 21.4001 235.978 27.6668 235.978 35.0001C235.978 42.3334 233.911 48.6001 229.778 53.8001C225.778 59.0001 220.245 62.9334 213.178 65.6001C222.378 68.4001 229.578 72.8668 234.778 79.0001C240.111 85.1334 242.778 92.6001 242.778 101.4C242.778 109.667 240.645 116.8 236.378 122.8C232.245 128.8 226.311 133.4 218.578 136.6C210.978 139.8 201.845 141.4 191.178 141.4C180.511 141.4 171.311 139.867 163.578 136.8C155.845 133.6 149.911 129 145.778 123C141.645 117 139.578 109.933 139.578 101.8C139.578 92.7334 142.245 85.1334 147.578 79.0001C153.045 72.8668 160.378 68.4001 169.578 65.6001C162.245 62.8001 156.511 58.8001 152.378 53.6001C148.245 48.2668 146.178 41.8668 146.178 34.4001C146.178 27.2001 147.978 21.0668 151.578 16.0001C155.311 10.8001 160.511 6.86675 167.178 4.20009C173.978 1.40009 181.911 9.58443e-05 190.978 9.58443e-05ZM190.978 72.6001C179.645 72.6001 170.711 75.0668 164.178 80.0001C157.778 84.8001 154.578 91.5334 154.578 100.2C154.578 109.267 157.778 116.333 164.178 121.4C170.711 126.467 179.711 129 191.178 129C202.645 129 211.578 126.533 217.978 121.6C224.378 116.533 227.578 109.467 227.578 100.4C227.578 91.7334 224.311 84.9334 217.778 80.0001C211.378 75.0668 202.445 72.6001 190.978 72.6001ZM191.178 11.4001C181.445 11.4001 173.778 13.6001 168.178 18.0001C162.711 22.2668 159.978 28.2001 159.978 35.8001C159.978 43.5334 162.711 49.6001 168.178 54.0001C173.778 58.2668 181.445 60.4001 191.178 60.4001C200.911 60.4001 208.511 58.2668 213.978 54.0001C219.445 49.6001 222.178 43.5334 222.178 35.8001C222.178 28.2001 219.445 22.2668 213.978 18.0001C208.511 13.6001 200.911 11.4001 191.178 11.4001Z" fill="black"/>
</svg>
