<svg width="1728" height="1094" viewBox="0 0 1728 1094" fill="none" xmlns="http://www.w3.org/2000/svg">
<path d="M0 533.633C0 235.033 260.076 3.89215 558.11 22.2651C664.37 28.8158 771.239 33.3288 864 33.3288C1041.81 33.3288 1271.47 16.7455 1449.3 1.01538C1598.02 -12.1391 1728 104.181 1728 253.481V560.025C1728 858.624 1467.92 1089.77 1169.89 1071.39C1063.63 1064.84 956.761 1060.33 864 1060.33C686.185 1060.33 456.534 1076.91 278.697 1092.64C129.977 1105.8 0 989.477 0 840.177V533.633Z" fill="#EAD6C2"/>
<path d="M1610 357.329C1610 430.23 1550.9 489.329 1478 489.329C1405.1 489.329 1346 430.23 1346 357.329C1346 284.427 1405.1 225.329 1478 225.329C1550.9 225.329 1610 284.427 1610 357.329Z" fill="#FC8E1C"/>
<path d="M286 454.329C286 489.675 257.346 518.329 222 518.329C186.654 518.329 158 489.675 158 454.329C158 418.983 186.654 390.329 222 390.329C257.346 390.329 286 418.983 286 454.329Z" fill="#FC8E1C"/>
</svg>
