<svg width="1290" height="258" viewBox="0 0 1290 258" fill="none" xmlns="http://www.w3.org/2000/svg">
<path d="M0 0H174.549H1290V165.18V258H781.342H778.549H448.224H404.172H0V0Z" fill="#ECB176"/>
<g style="mix-blend-mode:luminosity">
<path d="M914.368 196.298C1019.04 167.368 1144.44 160.641 1244.97 163.3C1270.26 163.969 1290 184.953 1290 210.255C1290 236.624 1268.62 258 1242.26 258H928.591C880.536 258 868.05 209.1 914.368 196.298Z" fill="#FC8E1C"/>
<path d="M189.512 16.4487C232.38 63.1615 282.328 114.115 334.399 162.028C369.678 194.491 347.225 258 299.282 258H50C22.3858 258 0 235.614 0 208V50C0 22.3858 22.3857 0 50 0H152.308C166.467 0 179.939 6.01699 189.512 16.4487Z" fill="#FC8E1C"/>
</g>
<path fill-rule="evenodd" clip-rule="evenodd" d="M1003.18 0C1006.82 71.8574 1066.24 129 1139 129C1211.76 129 1271.18 71.8574 1274.82 0H1003.18Z" fill="#E59647"/>
<path fill-rule="evenodd" clip-rule="evenodd" d="M180 0C210.657 91.3486 262.308 187.081 325.914 258H369.965H700.291H703.084C725.227 190.013 684.446 110.729 543.863 83.6309C454.802 66.4639 380.886 34.6211 322.063 0H180Z" fill="#FDC081"/>
<g style="mix-blend-mode:soft-light">
<circle cx="795" cy="116" r="34" fill="#D9D9D9"/>
</g>
<g style="mix-blend-mode:soft-light">
<circle cx="957.5" cy="138.5" r="22.5" fill="#D9D9D9"/>
</g>
<g style="mix-blend-mode:soft-light">
<circle cx="865" cy="25" r="17" fill="#D9D9D9"/>
</g>
</svg>
